<?xml version="1.0" encoding="UTF-8" standalone="no"?>
<svg
   xmlns:dc="http://purl.org/dc/elements/1.1/"
   xmlns:cc="http://creativecommons.org/ns#"
   xmlns:rdf="http://www.w3.org/1999/02/22-rdf-syntax-ns#"
   xmlns:svg="http://www.w3.org/2000/svg"
   xmlns="http://www.w3.org/2000/svg"
   xmlns:sodipodi="http://sodipodi.sourceforge.net/DTD/sodipodi-0.dtd"
   xmlns:inkscape="http://www.inkscape.org/namespaces/inkscape"
   width="140mm"
   height="50mm"
   viewBox="0 0 140 50"
   version="1.1"
   id="svg8"
   inkscape:version="1.0.2-2 (e86c870879, 2021-01-15)"
   sodipodi:docname="logo-ldms.svg">
  <defs
     id="defs2" />
  <sodipodi:namedview
     id="base"
     pagecolor="#ffffff"
     bordercolor="#666666"
     borderopacity="1.0"
     inkscape:pageopacity="0.0"
     inkscape:pageshadow="2"
     inkscape:zoom="0.7"
     inkscape:cx="445.101"
     inkscape:cy="263.59342"
     inkscape:document-units="mm"
     inkscape:current-layer="layer1"
     inkscape:document-rotation="0"
     showgrid="false"
     inkscape:window-width="1280"
     inkscape:window-height="967"
     inkscape:window-x="0"
     inkscape:window-y="0"
     inkscape:window-maximized="0" />
  <metadata
     id="metadata5">
    <rdf:RDF>
      <cc:Work
         rdf:about="">
        <dc:format>image/svg+xml</dc:format>
        <dc:type
           rdf:resource="http://purl.org/dc/dcmitype/StillImage" />
        <dc:title></dc:title>
      </cc:Work>
    </rdf:RDF>
  </metadata>
  <g
     inkscape:label="Lapis 1"
     inkscape:groupmode="layer"
     id="layer1">
    <g
       id="g981"
       transform="translate(-41.600908,-59.132591)">
      <g
         id="g927"
         transform="translate(-3.7041668)">
        <path
           id="rect907"
           style="fill:#000080;fill-opacity:1;stroke:none;stroke-width:3.37694;stroke-linecap:round;stroke-miterlimit:4;stroke-dasharray:none"
           d="m 435.27344,247.00586 v 140.66406 h 38.63672 V 247.00586 Z m 19.30859,117.36523 a 6.3439372,6.3439372 0 0 1 0.01,0 6.3439372,6.3439372 0 0 1 6.34375,6.34571 6.3439372,6.3439372 0 0 1 -6.34375,6.34375 6.3439372,6.3439372 0 0 1 -6.34375,-6.34375 6.3439372,6.3439372 0 0 1 6.33398,-6.34571 z"
           transform="scale(0.26458333)" />
        <path
           id="circle919"
           style="fill:#b3b3b3;fill-opacity:1;stroke:none;stroke-width:2.17394;stroke-linecap:round;stroke-miterlimit:4;stroke-dasharray:none"
           d="m 454.5918,364.18359 a 6.5327251,6.5327251 0 0 0 -6.53321,6.53321 6.5327251,6.5327251 0 0 0 6.53321,6.53125 6.5327251,6.5327251 0 0 0 6.5332,-6.53125 6.5327251,6.5327251 0 0 0 -6.5332,-6.53321 z m -0.0117,0.71289 a 5.8184394,5.8184394 0 0 1 0.0117,0 5.8184394,5.8184394 0 0 1 5.81836,5.82032 5.8184394,5.8184394 0 0 1 -5.81836,5.81836 5.8184394,5.8184394 0 0 1 -5.81836,-5.81836 5.8184394,5.8184394 0 0 1 5.80664,-5.82032 z"
           transform="scale(0.26458333)" />
      </g>
      <path
         id="path843"
         style="font-style:normal;font-variant:normal;font-weight:normal;font-stretch:normal;font-size:57.6479px;line-height:1.25;font-family:David;-inkscape-font-specification:David;fill:#000080;fill-opacity:1;stroke:none;stroke-width:0.300249"
         d="m 151.22434,65.353633 c -0.0138,0.01152 -0.0281,0.022 -0.0419,0.03359 -2.27064,1.914091 -3.406,4.353454 -3.406,7.318417 0,3.077557 1.40764,5.723676 4.22248,7.938016 1.35112,1.069639 3.51871,2.420376 6.50245,4.052983 3.00249,1.613841 5.15077,2.918362 6.4456,3.912938 2.1205,1.613842 3.1812,3.452763 3.1812,5.516978 0,1.970387 -0.79754,3.527883 -2.39262,4.672581 -1.44494,1.050878 -3.18075,1.576134 -5.20743,1.576134 -2.02669,0 -3.88492,-0.450075 -5.57382,-1.350825 -1.85779,-0.975807 -3.22733,-2.299129 -4.10931,-3.969266 -0.41446,-0.771348 -0.78273,-1.770753 -1.10536,-2.994131 h -1.5968 V 102.571 h 1.04128 c 0.20642,-1.44495 0.77892,-2.16731 1.71721,-2.16731 0.63803,0 1.78253,0.27177 3.43389,0.81597 1.87656,0.63803 3.09624,1.0043 3.65921,1.09812 0.99458,0.1689 2.03595,0.25322 3.12436,0.25322 3.24645,0 6.02414,-0.93825 8.33231,-2.814816 2.45829,-2.026685 3.68711,-4.625555 3.68711,-7.79694 0,-1.520013 -0.34695,-2.974388 -1.04128,-4.36304 -0.86322,-1.688905 -2.37398,-3.265194 -4.53202,-4.728911 -0.84446,-0.581734 -2.77735,-1.679499 -5.79862,-3.293341 -4.35362,-2.345697 -7.12113,-4.22221 -8.30336,-5.629629 -0.80692,-0.97581 -1.21078,-2.036501 -1.21078,-3.181202 0,-1.707668 0.71321,-3.13359 2.1394,-4.278291 0.62559,-0.493424 1.29724,-0.869495 2.01383,-1.131197 z m 10.71408,0 c 0.70327,0.215289 1.3969,0.504674 2.07997,0.877983 3.0588,1.670137 4.90737,4.879107 5.5454,9.626801 h 1.04128 V 65.353633 Z" />
      <path
         id="rect864"
         style="fill:#1c75bc;fill-opacity:1;stroke:none;stroke-width:2.57386;stroke-linecap:round;stroke-miterlimit:4;stroke-dasharray:none"
         d="m 289.07422,247.23828 v 140.43164 h 124.32812 v -113.5625 l -31.08398,-26.86914 z m 21.28711,27.19727 h 15.87695 14.67383 5.72266 c 8.7942,0 15.87304,7.08079 15.87304,15.875 v 72.19531 c 0,8.7942 -7.07884,15.87305 -15.87304,15.87305 h -5.72266 v 0.004 h -30.55078 z"
         transform="scale(0.26458333)" />
      <path
         style="fill:#000080;stroke:none;stroke-width:0.600159;stroke-linecap:butt;stroke-linejoin:miter;stroke-miterlimit:4;stroke-dasharray:none;stroke-opacity:1"
         d="m 101.58501,65.841091 c 0.54251,2.611893 0.54681,5.089236 2.24333,7.989633 1.3759,-1.841531 3.16451,-1.894709 5.00466,-1.72443 z"
         id="path871"
         sodipodi:nodetypes="cccc" />
      <g
         id="g933"
         transform="translate(8.4665439)">
        <path
           id="path929"
           style="fill:#000080;fill-opacity:1;stroke:none;stroke-width:3.37694;stroke-linecap:round;stroke-miterlimit:4;stroke-dasharray:none"
           d="m 435.27344,247.00586 v 140.66406 h 38.63672 V 247.00586 Z m 19.30859,117.36523 a 6.3439372,6.3439372 0 0 1 0.01,0 6.3439372,6.3439372 0 0 1 6.34375,6.34571 6.3439372,6.3439372 0 0 1 -6.34375,6.34375 6.3439372,6.3439372 0 0 1 -6.34375,-6.34375 6.3439372,6.3439372 0 0 1 6.33398,-6.34571 z"
           transform="scale(0.26458333)" />
        <path
           id="path931"
           style="fill:#b3b3b3;fill-opacity:1;stroke:none;stroke-width:2.17394;stroke-linecap:round;stroke-miterlimit:4;stroke-dasharray:none"
           d="m 454.5918,364.18359 a 6.5327251,6.5327251 0 0 0 -6.53321,6.53321 6.5327251,6.5327251 0 0 0 6.53321,6.53125 6.5327251,6.5327251 0 0 0 6.5332,-6.53125 6.5327251,6.5327251 0 0 0 -6.5332,-6.53321 z m -0.0117,0.71289 a 5.8184394,5.8184394 0 0 1 0.0117,0 5.8184394,5.8184394 0 0 1 5.81836,5.82032 5.8184394,5.8184394 0 0 1 -5.81836,5.81836 5.8184394,5.8184394 0 0 1 -5.81836,-5.81836 5.8184394,5.8184394 0 0 1 5.80664,-5.82032 z"
           transform="scale(0.26458333)" />
      </g>
      <g
         id="g939"
         transform="translate(20.637282)">
        <path
           id="path935"
           style="fill:#000080;fill-opacity:1;stroke:none;stroke-width:3.37694;stroke-linecap:round;stroke-miterlimit:4;stroke-dasharray:none"
           d="m 435.27344,247.00586 v 140.66406 h 38.63672 V 247.00586 Z m 19.30859,117.36523 a 6.3439372,6.3439372 0 0 1 0.01,0 6.3439372,6.3439372 0 0 1 6.34375,6.34571 6.3439372,6.3439372 0 0 1 -6.34375,6.34375 6.3439372,6.3439372 0 0 1 -6.34375,-6.34375 6.3439372,6.3439372 0 0 1 6.33398,-6.34571 z"
           transform="scale(0.26458333)" />
        <path
           id="path937"
           style="fill:#b3b3b3;fill-opacity:1;stroke:none;stroke-width:2.17394;stroke-linecap:round;stroke-miterlimit:4;stroke-dasharray:none"
           d="m 454.5918,364.18359 a 6.5327251,6.5327251 0 0 0 -6.53321,6.53321 6.5327251,6.5327251 0 0 0 6.53321,6.53125 6.5327251,6.5327251 0 0 0 6.5332,-6.53125 6.5327251,6.5327251 0 0 0 -6.5332,-6.53321 z m -0.0117,0.71289 a 5.8184394,5.8184394 0 0 1 0.0117,0 5.8184394,5.8184394 0 0 1 5.81836,5.82032 5.8184394,5.8184394 0 0 1 -5.81836,5.81836 5.8184394,5.8184394 0 0 1 -5.81836,-5.81836 5.8184394,5.8184394 0 0 1 5.80664,-5.82032 z"
           transform="scale(0.26458333)" />
      </g>
      <path
         id="rect941"
         style="fill:#1c75bc;fill-opacity:1;stroke:none;stroke-width:0.782291;stroke-linecap:round;stroke-miterlimit:4;stroke-dasharray:none"
         d="m 50.063616,65.757226 v 37.154324 h 5.632215 16.215029 2.457214 v -2.45722 -8.393283 H 72.583687 71.91086 v 2.526978 c -1.058458,2.63244 -3.133177,4.753776 -5.774841,5.866305 H 55.695831 V 65.757226 Z" />
    </g>
  </g>
</svg>
